<svg width="38" height="38" viewBox="0 0 38 38" fill="none" xmlns="http://www.w3.org/2000/svg">
<path d="M22.336 22.3952L22.8598 26.1035C22.9302 26.6021 22.5831 27.0634 22.0844 27.1339C19.3885 27.5146 16.8229 25.8551 16.0647 23.2401L15.5163 21.3487C14.9094 19.2555 14.603 17.0867 14.6065 14.9073L14.6096 12.938C14.614 10.2153 16.6197 7.91019 19.3156 7.52943C19.8142 7.459 20.2755 7.80614 20.346 8.30479L20.8697 12.013C20.9469 12.5599 20.5662 13.0658 20.0194 13.143L18.5894 13.345C18.3622 13.3771 18.181 13.551 18.1396 13.7767C17.6608 16.3866 18.0414 19.0814 19.2242 21.4566C19.3266 21.6621 19.5488 21.779 19.7761 21.7469L21.206 21.5449C21.7529 21.4677 22.2588 21.8484 22.336 22.3952Z" fill="#9F6B53"/>
<path fill-rule="evenodd" clip-rule="evenodd" d="M22.0844 27.1339C22.583 27.0634 22.9302 26.6021 22.8598 26.1035L22.336 22.3953C22.336 22.3952 22.336 22.3951 22.336 22.395C22.2586 21.8483 21.7528 21.4677 21.206 21.5449L20.0957 21.7017L20.868 27.1697C21.2665 27.2025 21.6739 27.1918 22.0844 27.1339ZM18.1368 7.83187L18.9091 13.2998L20.0194 13.143C20.5662 13.0658 20.9469 12.5599 20.8697 12.013L20.346 8.3048C20.2755 7.80615 19.8142 7.45901 19.3156 7.52944C18.9051 7.58741 18.5106 7.68999 18.1368 7.83187Z" fill="#9F6B53"/>
</svg>
