<svg width="39" height="39" viewBox="0 0 39 39" fill="none" xmlns="http://www.w3.org/2000/svg">
<path fill-rule="evenodd" clip-rule="evenodd" d="M19.8969 32.3089C21.9075 31.3023 30.875 26.3386 30.875 17.875C30.875 11.5928 25.7822 6.5 19.5 6.5C13.2178 6.5 8.125 11.5928 8.125 17.875C8.125 26.3386 17.0925 31.3023 19.1031 32.3089C19.3579 32.4364 19.6421 32.4364 19.8969 32.3089ZM19.5 22.75C22.1924 22.75 24.375 20.5674 24.375 17.875C24.375 15.1826 22.1924 13 19.5 13C16.8076 13 14.625 15.1826 14.625 17.875C14.625 20.5674 16.8076 22.75 19.5 22.75Z" fill="#9F6B53"/>
</svg>
